<svg width="36" height="36" viewBox="0 0 36 36" fill="none" xmlns="http://www.w3.org/2000/svg">
<path d="M17.9994 0C8.05872 0 0 8.05932 0 17.9996C0 27.94 8.05872 36 17.9994 36C27.9401 36 35.9998 27.9404 35.9998 17.9996C35.9998 8.05884 27.9401 0 17.9994 0ZM17.9998 27.9541C16.7078 27.9541 15.6599 26.9071 15.6599 25.6142H20.3393C20.3395 26.9071 19.2917 27.9541 17.9998 27.9541ZM25.9066 23.268H25.906C25.906 24.1332 25.2048 24.1901 24.3402 24.1901H11.6591C10.7941 24.1901 10.0936 24.1331 10.0936 23.2679V23.1188C10.0936 22.4966 10.459 21.9638 10.984 21.7111L11.481 17.4208C11.481 14.2799 13.7022 11.6584 16.6592 11.0399V9.37428C16.6592 8.63388 17.2596 8.03352 18.0004 8.03352C18.7408 8.03352 19.3411 8.63388 19.3411 9.37428V11.04C22.2982 11.6584 24.5194 14.2796 24.5194 17.4209L25.0164 21.7118C25.5414 21.9649 25.9066 22.4968 25.9066 23.119V23.268Z" fill="#CCE7E6"/>
</svg>
